<svg preserveAspectRatio="none" width="100%" height="100%" viewBox="0 0 98 20" fill="none" xmlns="http://www.w3.org/2000/svg"><title>P2P Logo</title>
<path fill-rule="evenodd" clip-rule="evenodd" d="M.503 0a.37.37 0 0 0-.37.37v11.112c0 .204.166.37.37.37h28.89a.37.37 0 0 0 .37-.37V.37a.37.37 0 0 0-.37-.37H.502Zm25.37 8.148a.185.185 0 0 0 .186-.185V3.889a.185.185 0 0 0-.185-.185H4.022a.185.185 0 0 0-.185.185v4.074c0 .102.082.185.185.185h21.852Z" fill="currentColor"></path>
<path d="M3.837 16.667a.37.37 0 0 0-.37-.37H.502a.37.37 0 0 0-.37.37v2.963c0 .204.166.37.37.37h2.963a.37.37 0 0 0 .37-.37v-2.963ZM71.985 16.667a.37.37 0 0 0-.37-.37H68.65a.37.37 0 0 0-.37.37v2.963c0 .204.166.37.37.37h2.963a.37.37 0 0 0 .37-.37v-2.963ZM34.207 16.667a.37.37 0 0 1 .37-.37h28.89a.37.37 0 0 1 .37.37v2.963a.37.37 0 0 1-.37.37h-28.89a.37.37 0 0 1-.37-.37v-2.963Z" fill="currentColor"></path>
<path fill-rule="evenodd" clip-rule="evenodd" d="M68.281.37a.37.37 0 0 1 .37-.37h28.89a.37.37 0 0 1 .37.37v11.112a.37.37 0 0 1-.37.37H68.65a.37.37 0 0 1-.37-.37V.37Zm25.74 3.334c.103 0 .186.083.186.185v4.074a.185.185 0 0 1-.185.185H72.17a.185.185 0 0 1-.185-.185V3.889c0-.102.083-.185.185-.185h21.852Z" fill="currentColor"></path>
<path d="M34.577 0a.37.37 0 0 0-.37.37v2.963c0 .205.166.37.37.37h25.37c.103 0 .186.084.186.186v4.074a.185.185 0 0 1-.185.185h-25.37a.37.37 0 0 0-.371.37v2.963c0 .205.166.37.37.37h28.89a.37.37 0 0 0 .37-.37V.372a.37.37 0 0 0-.37-.371h-28.89Z" fill="currentColor"></path>
</svg>