<svg xmlns="http://www.w3.org/2000/svg" width="1372" height="359" viewBox="0 0 1372 359" fill="none" class="mdl-js">
<path fill-rule="evenodd" clip-rule="evenodd" d="M358.181 180.062C358.181 181.885 358.154 183.702 358.1 185.512L357.903 185.512L357.902 185.531L270.993 185.531L270.993 181.566L187.134 181.566C187.155 180.741 187.165 179.913 187.165 179.083C187.165 178.26 187.155 177.439 187.134 176.62L270.993 176.62L270.993 172.674L271.123 172.674L271.123 172.655L358.032 172.655C358.131 175.111 358.181 177.581 358.181 180.062ZM185.677 162.193L267.72 152.098L268.202 156.034L354.853 145.372C354.026 141.119 353.049 136.919 351.929 132.778L266.639 143.273L267.121 147.209L184.683 157.353C185.055 158.951 185.387 160.565 185.677 162.193ZM181.395 146.308L259.826 126.711L260.783 130.559L343.991 109.769C342.285 105.736 340.437 101.778 338.453 97.9015L257.68 118.084L258.637 121.931L179.569 141.688C180.216 143.208 180.825 144.749 181.395 146.308ZM174.455 131.441L247.766 103.758L249.161 107.469L326.718 78.1833C324.198 74.5035 321.545 70.9222 318.766 67.4462L244.638 95.4377L246.033 99.1486L171.837 127.166C172.746 128.566 173.619 129.991 174.455 131.441ZM164.822 117.692L229.566 83.9476L231.392 87.4659L302.999 50.1445C299.702 46.9662 296.285 43.9127 292.755 40.9916L225.472 76.059L227.298 79.5772L161.454 113.894C162.61 115.13 163.733 116.396 164.822 117.692ZM149.199 102.868L207.811 65.5939L209.931 68.9422L274.628 27.7991C270.566 25.2132 266.393 22.786 262.119 20.5262L203.057 58.0862L205.177 61.4345L144.87 99.7861C146.343 100.774 147.786 101.801 149.199 102.868ZM135.367 94.1833L184.496 53.8877L187.002 56.9564L242.346 11.5625C237.639 9.76481 232.837 8.15951 227.949 6.7562L178.876 47.0068L181.382 50.0756L130.464 91.8394C132.124 92.5751 133.759 93.3569 135.367 94.1833ZM117.025 87.0627L155.837 48.4473L158.625 51.2615L207.904 2.23237C202.56 1.3458 197.137 0.69531 191.644 0.291941L149.586 42.1372L152.374 44.9514L111.402 85.7156C113.297 86.1087 115.172 86.5584 117.025 87.0627ZM95.5595 83.801L126.499 46.306L129.549 48.8331L169.845 -8.23242e-06C163.728 0.283932 157.691 0.874079 151.748 1.75548L119.662 40.6395L122.711 43.1667L89.2003 83.7775C90.1376 83.7501 91.0783 83.7363 92.0222 83.7363C93.2065 83.7363 94.3857 83.758 95.5595 83.801ZM77.0277 84.9137L100.858 48.0238L104.18 50.1789L132.996 5.57204C126.41 7.28474 119.971 9.36199 113.701 11.781L93.4102 43.1917L96.732 45.3467L70.3235 86.2272C72.5297 85.7114 74.7654 85.2726 77.0277 84.9137ZM56.4115 90.6395L73.5649 58.5114L77.054 60.3822L99.7602 17.8538C92.4803 21.4008 85.4749 25.4254 78.7847 29.8871L65.7416 54.3166L69.2307 56.1874L49.0449 93.9953C51.4437 92.776 53.9011 91.6557 56.4115 90.6395ZM41.6289 98.1939L48.9126 77.5076L52.6442 78.8272L66.8058 38.6072C59.6166 44.3061 52.8723 50.5437 46.6332 57.2592L40.5455 74.5489L44.2771 75.8685L34.7436 102.944C36.9648 101.263 39.262 99.678 41.6289 98.1939ZM23.4423 112.995L26.6562 97.9764L30.5254 98.808L37.0102 68.5055C30.188 77.1716 24.1427 86.4805 18.9796 96.3266L21.8499 96.9435L15.9458 121.815C18.2667 118.724 20.7709 115.778 23.4423 112.995ZM10.078 130.604L10.078 110.708C5.25967 123.434 1.83785 139.25 5.42699e-05 154.771C2.25353 146.182 5.67275 138.066 10.078 130.604ZM0.128287 203.878C2.01916 217.124 5.34704 229.906 9.9486 242.059L9.9486 227.342C5.68819 220.081 2.35982 212.205 0.128287 203.878ZM16.5694 237.172L21.7205 261.243L18.8502 261.86C24.0134 271.706 30.0586 281.015 36.8808 289.681L30.396 259.378L26.5268 260.21L23.27 244.991C20.9002 242.509 18.6629 239.899 16.5694 237.172ZM34.5574 255.081L44.1477 282.318L40.4161 283.637L46.5039 300.927C52.7429 307.643 59.4873 313.88 66.6764 319.579L52.5148 279.359L48.7832 280.679L41.4536 259.862C39.0824 258.368 36.7816 256.772 34.5574 255.081ZM48.8523 264.073L69.1014 301.999L65.6123 303.87L78.6554 328.299C85.3456 332.761 92.3509 336.785 99.6308 340.332L76.9247 297.804L73.4356 299.675L56.2326 267.454C53.7171 266.43 51.2552 265.301 48.8523 264.073ZM70.1556 271.899L96.6026 312.84L93.2808 314.995L113.572 346.405C119.842 348.824 126.281 350.902 132.867 352.614L104.051 308.007L100.729 310.162L76.8689 273.227C74.6034 272.864 72.3646 272.42 70.1556 271.899ZM89.0505 274.384L122.582 315.02L119.532 317.547L151.619 356.431C157.561 357.312 163.598 357.902 169.716 358.186L129.42 309.353L126.37 311.88L95.4176 274.37C94.2907 274.41 93.1588 274.43 92.0222 274.43C91.028 274.43 90.0374 274.414 89.0505 274.384ZM111.278 272.476L152.244 313.235L149.456 316.049L191.515 357.894C197.007 357.491 202.431 356.84 207.775 355.954L158.496 306.925L155.708 309.739L116.907 271.135C115.052 271.638 113.175 272.085 111.278 272.476ZM130.364 266.371L181.253 308.111L178.747 311.179L227.82 351.43C232.707 350.027 237.509 348.421 242.217 346.624L186.873 301.23L184.366 304.299L135.273 264.031C133.662 264.856 132.026 265.637 130.364 266.371ZM144.792 258.432L205.048 296.752L202.928 300.1L261.99 337.66C266.264 335.4 270.436 332.973 274.498 330.387L209.802 289.244L207.682 292.592L149.126 255.354C147.711 256.419 146.266 257.446 144.792 258.432ZM161.399 244.331L227.168 278.609L225.342 282.127L292.625 317.195C296.156 314.274 299.573 311.22 302.87 308.042L231.262 270.72L229.436 274.239L164.771 240.535C163.68 241.83 162.556 243.096 161.399 244.331ZM171.801 231.056L245.903 259.038L244.508 262.749L318.637 290.74C321.415 287.264 324.068 283.683 326.588 280.003L249.032 250.717L247.637 254.428L174.422 226.782C173.585 228.231 172.711 229.656 171.801 231.056ZM179.548 216.526L258.508 236.255L257.55 240.103L338.324 260.285C340.308 256.408 342.156 252.451 343.862 248.418L260.654 227.627L259.697 231.475L181.377 211.906C180.807 213.465 180.197 215.006 179.548 216.526ZM184.675 200.849L266.992 210.977L266.509 214.913L351.8 225.408C352.92 221.267 353.896 217.068 354.724 212.814L268.073 202.152L267.591 206.088L185.671 196.008C185.38 197.636 185.047 199.25 184.675 200.849Z" fill="#141414"/>
<path d="M459.999 288.796V70.2305H540.513C589.196 70.2305 617.595 97.395 617.595 141.42C617.595 185.446 589.196 212.61 540.513 212.61H490.27V288.796H459.999ZM490.27 184.509H539.889C570.784 184.509 587.324 169.834 587.324 141.42C587.324 113.007 570.784 98.3317 539.889 98.3317H490.27V184.509Z" fill="#141414"/>
<path d="M679.197 290.669C651.735 290.669 641.125 278.18 641.125 253.513V70.2305H670.147V247.581C670.147 259.758 673.892 265.066 684.814 265.066C686.999 265.066 689.183 265.066 691.68 264.754V289.108C688.247 290.045 683.566 290.669 679.197 290.669Z" fill="#141414"/>
<path d="M751.656 292.23C720.137 292.23 701.101 277.243 701.101 249.142C701.101 218.23 727.315 207.614 759.458 201.994L800.339 194.813V189.192C800.339 164.526 788.48 157.032 767.884 157.032C746.975 157.032 736.365 164.526 733.868 182.011H704.845C707.342 149.226 733.556 132.053 768.508 132.053C808.141 132.053 829.362 149.538 829.362 193.876V288.796H801.275V267.564C789.729 283.488 774.125 292.23 751.656 292.23ZM729.811 247.581C729.811 261.007 738.549 267.564 757.898 267.564C780.991 267.564 800.339 252.889 800.339 227.285V218.23L768.196 223.851C744.791 227.91 729.811 231.032 729.811 247.581Z" fill="#141414"/>
<path d="M914.52 292.23C876.76 292.23 853.979 275.057 849.61 242.897H879.257C882.689 260.695 894.86 267.876 915.145 267.876C936.99 267.876 948.848 262.256 948.848 247.581C948.848 236.028 941.046 230.095 919.826 225.1L906.407 221.977C869.27 213.235 854.603 199.809 854.603 176.391C854.603 147.977 876.448 132.053 912.648 132.053C949.784 132.053 972.254 148.602 975.374 179.201H945.728C943.231 162.652 931.996 156.408 913.272 156.408C894.236 156.408 883.625 161.403 883.625 174.83C883.625 185.758 890.803 191.69 911.088 196.374L924.819 199.496C961.955 207.927 977.871 221.353 977.871 245.707C977.871 275.37 954.153 292.23 914.52 292.23Z" fill="#141414"/>
<path d="M999.994 288.796V135.488H1027.77V155.471C1039.63 138.922 1052.42 132.053 1072.71 132.053C1094.24 132.053 1109.53 140.484 1117.96 159.218C1128.57 141.108 1145.73 132.053 1167.58 132.053C1202.84 132.053 1220.63 152.036 1220.63 195.125V288.796H1191.61V196.998C1191.61 170.146 1183.18 158.593 1162.27 158.593C1135.74 158.593 1124.82 177.328 1124.82 209.8V288.796H1095.8V196.998C1095.8 170.146 1087.06 158.593 1066.46 158.593C1039.63 158.593 1029.02 177.328 1029.02 209.8V288.796H999.994Z" fill="#141414"/>
<path d="M1294.29 292.23C1262.77 292.23 1243.74 277.243 1243.74 249.142C1243.74 218.23 1269.95 207.614 1302.1 201.994L1342.98 194.813V189.192C1342.98 164.526 1331.12 157.032 1310.52 157.032C1289.61 157.032 1279 164.526 1276.51 182.011H1247.48C1249.98 149.226 1276.19 132.053 1311.15 132.053C1350.78 132.053 1372 149.538 1372 193.876V288.796H1343.91V267.564C1332.37 283.488 1316.76 292.23 1294.29 292.23ZM1272.45 247.581C1272.45 261.007 1281.19 267.564 1300.53 267.564C1323.63 267.564 1342.98 252.889 1342.98 227.285V218.23L1310.83 223.851C1287.43 227.91 1272.45 231.032 1272.45 247.581Z" fill="#141414"/>
</svg>